<svg xmlns="http://www.w3.org/2000/svg" viewBox="0 0 24 24" fill="currentColor">
  <path d="M1.125 0C.502 0 0 .502 0 1.125v21.75C0 23.498.502 24 1.125 24h21.75c.623 0 1.125-.502 1.125-1.125V1.125C24 .502 23.498 0 22.875 0zm17.363 9.75c.612 0 1.154.037 1.627.111a6.38 6.38 0 0 1 1.306.34v2.458a3.95 3.95 0 0 0-.643-.361 5.093 5.093 0 0 0-.717-.26 5.453 5.453 0 0 0-1.426-.2c-.3 0-.573.028-.819.086a2.1 2.1 0 0 0-.623.242c-.17.104-.3.229-.393.374a.888.888 0 0 0-.14.49c0 .196.053.373.156.529.104.156.252.304.443.444s.423.276.696.395c.272.12.576.237.912.352.468.162.898.338 1.292.532.393.193.733.42 1.018.681.286.26.508.567.669.92.159.353.238.766.238 1.237 0 .578-.109 1.076-.327 1.495-.217.418-.521.762-.914 1.031-.392.27-.857.471-1.395.605a7.03 7.03 0 0 1-1.744.202 7.1 7.1 0 0 1-1.685-.184 5.683 5.683 0 0 1-1.431-.566v-2.626a5.002 5.002 0 0 0 .984.566c.364.16.722.273 1.072.339.351.066.682.098.997.098.298 0 .558-.024.78-.074a1.97 1.97 0 0 0 .577-.21.94.94 0 0 0 .359-.332.841.841 0 0 0 .123-.453.844.844 0 0 0-.168-.537 1.792 1.792 0 0 0-.48-.442 4.47 4.47 0 0 0-.756-.39 24.71 24.71 0 0 0-.987-.358c-.45-.153-.863-.332-1.239-.54a4.057 4.057 0 0 1-.973-.713 2.984 2.984 0 0 1-.634-.962c-.152-.372-.227-.808-.227-1.309 0-.554.11-1.04.327-1.455.218-.415.512-.761.883-1.04a4.036 4.036 0 0 1 1.305-.639 5.886 5.886 0 0 1 1.599-.21zm-9.814.136H14v2.008H10.88v8.856H8.2v-8.856H5.074V9.886z"/>
</svg>
